<svg width="34" height="34" viewBox="0 0 34 34" fill="none" xmlns="http://www.w3.org/2000/svg">
<path d="M17 0.333252C7.83331 0.333252 0.333313 7.83325 0.333313 16.9999C0.333313 26.1666 7.83331 33.6666 17 33.6666C26.1666 33.6666 33.6666 26.1666 33.6666 16.9999C33.6666 7.83325 26.1666 0.333252 17 0.333252ZM24 14.1666L16 22.1666C15.3333 22.8333 14.3333 22.8333 13.6666 22.1666L9.99998 18.4999C9.33331 17.8333 9.33331 16.8333 9.99998 16.1666C10.6666 15.4999 11.6666 15.4999 12.3333 16.1666L14.8333 18.6666L21.6666 11.8333C22.3333 11.1666 23.3333 11.1666 24 11.8333C24.6666 12.4999 24.6666 13.4999 24 14.1666Z" fill="#4ADE80"/>
</svg>
