<svg width="8" height="12" viewBox="0 0 8 12" fill="none" xmlns="http://www.w3.org/2000/svg">
<path d="M3.29 6.00019L6.83 2.46019C7.01626 2.27283 7.1208 2.01938 7.1208 1.75519C7.1208 1.49101 7.01626 1.23756 6.83 1.05019C6.73704 0.956464 6.62644 0.88207 6.50458 0.831301C6.38272 0.780533 6.25202 0.754395 6.12 0.754395C5.98799 0.754395 5.85729 0.780533 5.73543 0.831301C5.61357 0.88207 5.50297 0.956464 5.41 1.05019L1.17 5.29019C1.07628 5.38316 1.00188 5.49376 0.951114 5.61562C0.900345 5.73747 0.874207 5.86818 0.874207 6.00019C0.874207 6.1322 0.900345 6.26291 0.951114 6.38477C1.00188 6.50663 1.07628 6.61723 1.17 6.71019L5.41 11.0002C5.50344 11.0929 5.61426 11.1662 5.7361 11.216C5.85794 11.2657 5.9884 11.291 6.12 11.2902C6.25161 11.291 6.38207 11.2657 6.50391 11.216C6.62575 11.1662 6.73656 11.0929 6.83 11.0002C7.01626 10.8128 7.1208 10.5594 7.1208 10.2952C7.1208 10.031 7.01626 9.77756 6.83 9.59019L3.29 6.00019Z" fill="#1E293B"/>
</svg>
