<svg width="34" height="34" viewBox="0 0 34 34" fill="none" xmlns="http://www.w3.org/2000/svg">
<path d="M33.1667 9.66659L24.3334 0.833252C24 0.499919 23.6667 0.333252 23.1667 0.333252H10.8334C10.3334 0.333252 10 0.499919 9.66671 0.833252L0.833374 9.66659C0.500041 9.99992 0.333374 10.3333 0.333374 10.8333V23.3333C0.333374 23.8333 0.500041 24.1666 0.833374 24.4999L9.66671 33.3333C10 33.4999 10.3334 33.6666 10.8334 33.6666H23.3334C23.8334 33.6666 24.1667 33.4999 24.5 33.1666L33.3334 24.3333C33.6667 23.9999 33.8334 23.6666 33.8334 23.1666V10.8333C33.6667 10.3333 33.5 9.99992 33.1667 9.66659ZM17 25.3333C16 25.3333 15.3334 24.6666 15.3334 23.6666C15.3334 22.6666 16 21.9999 17 21.9999C18 21.9999 18.6667 22.6666 18.6667 23.6666C18.6667 24.6666 18 25.3333 17 25.3333ZM18.6667 16.9999C18.6667 17.9999 18 18.6666 17 18.6666C16 18.6666 15.3334 17.9999 15.3334 16.9999V10.3333C15.3334 9.33325 16 8.66659 17 8.66659C18 8.66659 18.6667 9.33325 18.6667 10.3333V16.9999Z" fill="#F87171"/>
</svg>
