<svg width="30" height="34" viewBox="0 0 30 34" fill="none" xmlns="http://www.w3.org/2000/svg">
<path d="M15 7.33332C15.6593 7.33332 16.3037 7.13783 16.8519 6.77156C17.4001 6.40529 17.8273 5.88469 18.0796 5.2756C18.3319 4.66652 18.3979 3.99629 18.2693 3.34969C18.1407 2.70309 17.8232 2.10914 17.357 1.64297C16.8908 1.17679 16.2969 0.859324 15.6503 0.730707C15.0037 0.60209 14.3335 0.668101 13.7244 0.920393C13.1153 1.17269 12.5947 1.59993 12.2284 2.14809C11.8622 2.69625 11.6667 3.34072 11.6667 3.99999C11.6667 4.88405 12.0179 5.73189 12.643 6.35701C13.2681 6.98214 14.1159 7.33332 15 7.33332ZM27.5 30.6667H25.8333V22.3333C25.8333 21.8913 25.6577 21.4674 25.3452 21.1548C25.0326 20.8423 24.6087 20.6667 24.1667 20.6667H15.8333V17.3333H24.1667C24.6087 17.3333 25.0326 17.1577 25.3452 16.8452C25.6577 16.5326 25.8333 16.1087 25.8333 15.6667C25.8333 15.2246 25.6577 14.8007 25.3452 14.4881C25.0326 14.1756 24.6087 14 24.1667 14H15.8333V10.6667C15.8333 10.2246 15.6577 9.80071 15.3452 9.48815C15.0326 9.17559 14.6087 8.99999 14.1667 8.99999C13.7246 8.99999 13.3007 9.17559 12.9882 9.48815C12.6756 9.80071 12.5 10.2246 12.5 10.6667V22.3333C12.5 22.7754 12.6756 23.1993 12.9882 23.5118C13.3007 23.8244 13.7246 24 14.1667 24H22.5V32.3333C22.5 32.7754 22.6756 33.1993 22.9882 33.5118C23.3007 33.8244 23.7246 34 24.1667 34H27.5C27.942 34 28.3659 33.8244 28.6785 33.5118C28.9911 33.1993 29.1667 32.7754 29.1667 32.3333C29.1667 31.8913 28.9911 31.4674 28.6785 31.1548C28.3659 30.8423 27.942 30.6667 27.5 30.6667ZM16.1667 28C15.3271 29.1194 14.1567 29.9462 12.8211 30.3634C11.4855 30.7806 10.0526 30.767 8.72515 30.3245C7.39773 29.8821 6.24319 29.0332 5.42505 27.8981C4.60691 26.763 4.16666 25.3992 4.16666 24C4.16863 22.7045 4.54799 21.4377 5.25836 20.3544C5.96874 19.2711 6.97935 18.4182 8.16666 17.9C8.57333 17.7232 8.8931 17.3921 9.05563 16.9795C9.21816 16.5669 9.21014 16.1067 9.03333 15.7C8.85652 15.2933 8.5254 14.9736 8.11282 14.811C7.70024 14.6485 7.24 14.6565 6.83333 14.8333C5.43083 15.4457 4.1876 16.3719 3.19938 17.5404C2.21117 18.709 1.50434 20.0887 1.13333 21.5735C0.762322 23.0582 0.737035 24.6082 1.05942 26.1043C1.3818 27.6003 2.04324 29.0024 2.99282 30.2026C3.94239 31.4027 5.15475 32.3689 6.53653 33.0267C7.91831 33.6846 9.43264 34.0165 10.9629 33.9969C12.4931 33.9774 13.9985 33.6068 15.363 32.9139C16.7275 32.2209 17.9148 31.224 18.8333 30C19.0985 29.6464 19.2124 29.2019 19.1499 28.7643C19.0874 28.3267 18.8536 27.9319 18.5 27.6667C18.1464 27.4014 17.7019 27.2876 17.2643 27.3501C16.8267 27.4126 16.4319 27.6464 16.1667 28Z" fill="white"/>
</svg>
