<svg width="134" height="134" viewBox="0 0 134 134" fill="none" xmlns="http://www.w3.org/2000/svg">
<path d="M67 0.333313C54.0699 0.35788 41.4259 4.14205 30.6082 11.2249C19.7905 18.3078 11.266 28.3836 6.07294 40.2251C0.879911 52.0666 -0.757492 65.1628 1.36018 77.9183C3.47784 90.6739 9.25918 102.538 18 112.067C24.2428 118.834 31.8196 124.234 40.2529 127.928C48.6862 131.622 57.7932 133.529 67 133.529C76.2068 133.529 85.3138 131.622 93.7471 127.928C102.18 124.234 109.757 118.834 116 112.067C124.741 102.538 130.522 90.6739 132.64 77.9183C134.758 65.1628 133.12 52.0666 127.927 40.2251C122.734 28.3836 114.21 18.3078 103.392 11.2249C92.5741 4.14205 79.9301 0.35788 67 0.333313ZM67 120.333C53.1898 120.312 39.9261 114.935 30 105.333C33.0136 97.9969 38.1402 91.722 44.7284 87.3059C51.3165 82.8898 59.0687 80.532 67 80.532C74.9313 80.532 82.6835 82.8898 89.2717 87.3059C95.8598 91.722 100.986 97.9969 104 105.333C94.0739 114.935 80.8102 120.312 67 120.333ZM53.6667 53.6666C53.6667 51.0296 54.4487 48.4517 55.9137 46.259C57.3788 44.0664 59.4612 42.3574 61.8976 41.3483C64.3339 40.3391 67.0148 40.075 69.6012 40.5895C72.1876 41.104 74.5634 42.3739 76.4281 44.2386C78.2928 46.1033 79.5627 48.479 80.0771 51.0654C80.5916 53.6519 80.3276 56.3327 79.3184 58.7691C78.3092 61.2054 76.6003 63.2878 74.4076 64.7529C72.215 66.218 69.6371 67 67 67C63.4638 67 60.0724 65.5952 57.5719 63.0947C55.0714 60.5943 53.6667 57.2029 53.6667 53.6666ZM113.067 93.6666C107.11 83.4784 97.9427 75.5535 87 71.1333C90.3945 67.2844 92.6062 62.5377 93.3698 57.4629C94.1334 52.3881 93.4165 47.2007 91.305 42.5233C89.1935 37.8459 85.7772 33.877 81.4661 31.0931C77.1549 28.3091 72.1319 26.8283 67 26.8283C61.8681 26.8283 56.8451 28.3091 52.534 31.0931C48.2228 33.877 44.8065 37.8459 42.695 42.5233C40.5835 47.2007 39.8666 52.3881 40.6302 57.4629C41.3938 62.5377 43.6055 67.2844 47 71.1333C36.0573 75.5535 26.8898 83.4784 20.9333 93.6666C16.1863 85.5807 13.6781 76.3764 13.6667 67C13.6667 52.8551 19.2857 39.2896 29.2876 29.2876C39.2896 19.2857 52.8551 13.6666 67 13.6666C81.1449 13.6666 94.7104 19.2857 104.712 29.2876C114.714 39.2896 120.333 52.8551 120.333 67C120.322 76.3764 117.814 85.5807 113.067 93.6666Z" fill="#CBD5E1"/>
</svg>
